<svg width="115" height="54" viewBox="0 0 115 54" fill="none" xmlns="http://www.w3.org/2000/svg">
<g clip-path="url(#clip0_268_684)">
<path d="M26.6667 0L13.3333 13.3333H0L13.3333 0H26.6667Z" fill="#D02027"/>
<path d="M26.6674 -0.000443525L13.3339 13.333L26.6674 26.6665L40.0008 13.333L26.6674 -0.000443525Z" fill="#EF3B44"/>
<path d="M0 40.0003H26.6667L40 26.667H13.3333L0 40.0003Z" fill="#D02027"/>
<path d="M40 26.6673V13.334L26.6667 26.6673V40.0006L40 26.6673Z" fill="#ED1E24"/>
<path d="M0 13.334L13.3333 26.6673V53.334L0 40.0007" fill="#ED2024"/>
</g>
<path d="M58.4 17.9668V35.3668H56V17.9668H58.4ZM62.8 29.1668H57.9V27.0668H62.3C63.5 27.0668 64.4 26.7668 65 26.0668C65.6 25.4668 65.9 24.5668 65.9 23.4668C65.9 22.3668 65.6 21.5668 65 20.9668C64.4 20.3668 63.5 20.0668 62.4 20.0668H57.3V17.9668H62.8C63.9 17.9668 64.9 18.1668 65.8 18.6668C66.6 19.1668 67.3 19.7668 67.7 20.5668C68.2 21.3668 68.4 22.3668 68.4 23.4668C68.4 24.5668 68.2 25.4668 67.7 26.3668C67.2 27.2668 66.6 27.8668 65.8 28.3668C65 28.8668 63.9 29.1668 62.8 29.1668Z" fill="black"/>
<path d="M74.8 35.667C73.7 35.667 72.7 35.367 71.9 34.867C71 34.367 70.4 33.667 69.9 32.667C69.5 31.767 69.2 30.667 69.2 29.467C69.2 28.267 69.4 27.167 69.9 26.267C70.3 25.367 71 24.567 71.8 24.067C72.6 23.567 73.6 23.267 74.8 23.267C75.7 23.267 76.5 23.467 77.2 23.867C77.9 24.267 78.5 24.767 78.9 25.567V17.667H81.1V35.367H79.1L79 33.267C78.6 34.067 78 34.667 77.3 35.067C76.6 35.467 75.7 35.667 74.8 35.667ZM75.2 33.667C76 33.667 76.6 33.467 77.2 33.167C77.8 32.767 78.2 32.367 78.5 31.667C78.8 31.067 79 30.367 79 29.467C79 28.667 78.8 27.967 78.5 27.267C78.2 26.667 77.8 26.167 77.2 25.767C76.6 25.367 76 25.267 75.2 25.267C74.4 25.267 73.8 25.467 73.2 25.767C72.7 26.167 72.2 26.667 71.9 27.267C71.6 27.867 71.5 28.567 71.5 29.367C71.5 30.167 71.6 30.867 71.9 31.567C72.2 32.167 72.6 32.667 73.2 33.067C73.8 33.467 74.5 33.667 75.2 33.667Z" fill="black"/>
<path d="M87.2 17.9668V35.3668H84.8V17.9668H87.2ZM91.6 29.1668H86.7V27.0668H91.1C92.3 27.0668 93.2 26.7668 93.8 26.0668C94.4 25.4668 94.7 24.5668 94.7 23.4668C94.7 22.3668 94.4 21.5668 93.8 20.9668C93.2 20.3668 92.3 20.0668 91.2 20.0668H86.1V17.9668H91.6C92.7 17.9668 93.7 18.1668 94.6 18.6668C95.4 19.1668 96.1 19.7668 96.5 20.5668C97 21.3668 97.2 22.3668 97.2 23.4668C97.2 24.5668 97 25.4668 96.5 26.3668C96 27.2668 95.4 27.8668 94.6 28.3668C93.8 28.9668 92.8 29.1668 91.6 29.1668Z" fill="black"/>
<path d="M102.5 35.6672C101.2 35.6672 100.3 35.3672 99.6 34.6672C98.9 33.9672 98.5 33.1672 98.5 32.0672C98.5 30.9672 98.9 30.1672 99.7 29.4672C100.5 28.8672 101.5 28.4672 102.9 28.3672L106.6 28.0672V27.7672C106.6 27.0672 106.5 26.5672 106.2 26.1672C106 25.7672 105.6 25.4672 105.2 25.3672C104.8 25.1672 104.3 25.0672 103.8 25.0672C102.9 25.0672 102.1 25.2672 101.6 25.6672C101.1 26.0672 100.8 26.6672 100.8 27.3672H98.8C98.8 26.5672 99 25.8672 99.4 25.2672C99.8 24.6672 100.4 24.1672 101.2 23.8672C102 23.5672 102.8 23.3672 103.9 23.3672C104.9 23.3672 105.7 23.5672 106.5 23.8672C107.2 24.1672 107.8 24.7672 108.2 25.4672C108.6 26.1672 108.8 27.0672 108.8 28.0672V35.4672H106.9L106.7 33.5672C106.4 34.2672 105.9 34.7672 105.1 35.1672C104.3 35.4672 103.4 35.6672 102.5 35.6672ZM103.1 33.8672C104.2 33.8672 105 33.5672 105.6 32.8672C106.2 32.2672 106.5 31.3672 106.5 30.2672V29.6672L103.5 29.8672C102.5 29.9672 101.8 30.1672 101.3 30.5672C100.9 30.9672 100.6 31.3672 100.6 31.9672C100.6 32.5672 100.8 33.0672 101.2 33.3672C101.8 33.7672 102.4 33.8672 103.1 33.8672Z" fill="black"/>
<path d="M114.2 35.367H111.9V17.667H114.2V35.367Z" fill="black"/>
<defs>
<clipPath id="clip0_268_684">
<rect width="40" height="53.3333" fill="white"/>
</clipPath>
</defs>
</svg>
